<svg
  width="100"
  height="100"
  viewBox="0 0 100 100"
  fill="none"
  xmlns="http://www.w3.org/2000/svg"
>
  <g stroke="black" stroke-width="4" stroke-linecap="round" stroke-linejoin="round">
    <path d="M50 10 L57 18 L68 15 L72 25 L82 28 L80 38 L90 42 L85 52 L90 62 L80 66 L82 76 L72 79 L68 89 L57 86 L50 94 L43 86 L32 89 L28 79 L18 76 L20 66 L10 62 L15 52 L10 42 L20 38 L18 28 L28 25 L32 15 L43 18 Z" />
  </g>
  <circle cx="50" cy="50" r="20" stroke="black" stroke-width="4" fill="none"/>
</svg>
